# xmcd
#
# Track frame offsets:
#       150
#       16746
#       46882
#
# Disc length: 1036 seconds
#
# Revision: 0
# Processed by: cddbd v1.4PL0 Copyright (c) Steve Scherf et al.
# Submitted via: CD-DA_X-Tractor v0.21
#
DISCID=16040a03
DTITLE=Unrest - Demo
DYEAR=1900
DGENRE=
TTITLE0=black
TTITLE1=tears
TTITLE2=far awar
EXTD=
EXTT0=
EXTT1=
EXTT2=
PLAYORDER=
